<svg width="1728" height="449" viewBox="0 0 1728 449" fill="none" xmlns="http://www.w3.org/2000/svg">
<path fill-rule="evenodd" clip-rule="evenodd" d="M1.65625 0L74.9759 52.676C144.963 102.844 288.269 208.196 434.909 240.804C578.215 273.413 721.522 233.279 864.828 180.603C1008.13 130.436 1151.44 65.2179 1298.08 45.1508C1441.39 25.0838 1584.69 52.676 1654.68 65.2179L1728 77.7598V311.039H1654.68C1584.69 311.039 1441.39 311.039 1298.08 311.039C1151.44 311.039 1008.13 311.039 864.828 311.039C721.522 311.039 578.215 311.039 434.909 311.039C288.269 311.039 144.963 311.039 74.9759 311.039H1.65625V0Z" fill="#E6E6FA"/>
<path fill-rule="evenodd" clip-rule="evenodd" d="M-55 169.415L18.3196 194.499C88.3065 219.583 231.613 272.259 378.252 247.175C521.559 219.583 664.865 116.739 808.172 104.197C951.479 91.6555 1094.79 169.415 1241.42 207.041C1384.73 247.175 1528.04 247.175 1598.02 247.175H1671.34V362.56H1598.02C1528.04 362.56 1384.73 362.56 1241.42 362.56C1094.79 362.56 951.479 362.56 808.172 362.56C664.865 362.56 521.559 362.56 378.252 362.56C231.613 362.56 88.3065 362.56 18.3196 362.56H-55V169.415Z" fill="#A6A6FF"/>
<path fill-rule="evenodd" clip-rule="evenodd" d="M1.65625 137.961L74.9759 178.095C144.963 215.721 288.269 293.48 434.909 306.022C578.215 318.564 721.522 268.397 864.828 260.871C1008.13 255.855 1151.44 293.48 1298.08 285.955C1441.39 280.939 1584.69 228.263 1654.68 203.179L1728 178.095V449H1654.68C1584.69 449 1441.39 449 1298.08 449C1151.44 449 1008.13 449 864.828 449C721.522 449 578.215 449 434.909 449C288.269 449 144.963 449 74.9759 449H1.65625V137.961Z" fill="#4B0082"/>
</svg>
